<?xml version="1.0" encoding="UTF-8"?>
<svg id="Layer_3" xmlns="http://www.w3.org/2000/svg" version="1.1" viewBox="0 0 179.4 58.6">
  <!-- Generator: Adobe Illustrator 29.5.0, SVG Export Plug-In . SVG Version: 2.1.0 Build 137)  -->
  <path d="M13,27.5C4.6,27.5,0,22.1,0,14.5v-.3C0,6.6,5.5,1.2,13,1.2s10.7,2.6,11.3,8.9h-5.7c-.5-3-2.5-4.3-5.5-4.3-4.4,0-7,3.3-7,8.5v.3c0,4.9,2.1,8.4,7.1,8.4s6-2.5,6.1-5.4h-5.7v-4.2h11.4v2.7c0,6.8-4.3,11.3-12,11.3h0ZM37.2,27.5c-5.6,0-9.7-3.5-9.7-9.5v-.3c0-5.9,4.2-9.7,9.6-9.7s9.1,2.8,9.1,9.5v1.4h-13.4c0,3.1,1.8,4.9,4.6,4.9s3.6-1,3.9-2.6h4.9c-.6,4-3.8,6.3-8.9,6.3h0ZM32.8,15.7h8.3c-.2-2.8-1.6-4.2-4.1-4.2s-3.9,1.5-4.3,4.2h0ZM56.5,27.5c-4.5,0-8.1-3.2-8.1-9.4v-.3c0-6.1,3.5-9.7,8.2-9.7s4.8,1.3,5.9,3.2V0h5.1v27.1h-5.1v-3.1c-1,1.9-3.2,3.5-6,3.5ZM58.1,23.4c2.7,0,4.6-1.8,4.6-5.6v-.3c0-3.7-1.6-5.6-4.5-5.6s-4.5,2-4.5,5.7v.3c0,3.7,1.8,5.5,4.3,5.5h.1ZM80.8,27.5c-5.6,0-9.7-3.5-9.7-9.5v-.3c0-5.9,4.2-9.7,9.6-9.7s9.1,2.8,9.1,9.5v1.4h-13.4c0,3.1,1.8,4.9,4.6,4.9s3.6-1,3.9-2.6h4.9c-.6,4-3.8,6.3-8.9,6.3h0ZM76.4,15.7h8.3c-.2-2.8-1.6-4.2-4.1-4.2s-3.9,1.5-4.3,4.2h0ZM93.2,27.1V8.4h5.2v3c.9-1.9,3-3.4,6.1-3.4s6.3,2.2,6.3,7.2v11.9h-5.2v-11.1c0-2.5-1-3.7-3.3-3.7s-3.9,1.4-3.9,4.1v10.8h-5.2ZM115.1,27.1V0h5.2v16.3l6-7.9h5.5l-6.8,8.5,7.3,10.2h-5.8l-6.2-8.8v8.8s-5.2,0-5.2,0ZM1.5,57.7v-25.5h9.1c6,0,9.8,2.5,9.8,7.7h0c0,4-2.2,6-5.2,6.9l6.7,10.8h-6.1l-6.1-9.8h-2.5v9.8H1.5ZM7.2,43.9h3.2c2.9,0,4.3-1.2,4.3-3.7h0c0-2.7-1.6-3.6-4.3-3.6h-3.2v7.3ZM32.8,58.1c-5.6,0-9.7-3.5-9.7-9.5v-.3c0-5.9,4.2-9.7,9.6-9.7s9.1,2.8,9.1,9.5v1.4h-13.4c.1,3.1,1.8,4.9,4.6,4.9s3.6-1,3.9-2.6h4.9c-.6,4-3.8,6.3-8.9,6.3h-.1ZM28.4,46.4h8.3c-.2-2.8-1.6-4.2-4.1-4.2s-3.9,1.5-4.3,4.2h0ZM47.8,36.5c-1.6,0-2.9-1.2-2.9-2.8s1.3-2.8,2.9-2.8,3,1.2,3,2.8-1.3,2.8-3,2.8ZM45.3,57.7v-18.6h5.1v18.6s-5.1,0-5.1,0ZM63.6,58.1c-5.5,0-9.6-3.4-9.6-9.5v-.3c0-6,4.3-9.7,9.6-9.7s8.3,1.9,8.8,7.2h-4.9c-.4-2.2-1.7-3.2-3.8-3.2s-4.5,2-4.5,5.6v.3c0,3.7,1.7,5.7,4.6,5.7s3.7-1.2,4-3.6h4.7c-.3,4.4-3.5,7.5-8.9,7.5ZM75.7,57.7v-27.1h5.2v11.4c.9-1.9,3-3.4,6.1-3.4s6.3,2.2,6.3,7.2v11.9h-5.2v-11.1c0-2.5-1-3.7-3.3-3.7s-3.9,1.4-3.9,4.1v10.8h-5.2ZM106.2,58.1c-5.6,0-9.7-3.5-9.7-9.5v-.3c0-5.9,4.2-9.7,9.6-9.7s9.1,2.8,9.1,9.5v1.4h-13.4c0,3.1,1.8,4.9,4.6,4.9s3.6-1,3.9-2.6h4.9c-.6,4-3.8,6.3-8.9,6.3h0ZM101.8,46.4h8.3c-.2-2.8-1.6-4.2-4.1-4.2s-3.9,1.5-4.3,4.2h0ZM118.6,57.7v-18.6h5.2v3c.9-1.9,3-3.4,6.1-3.4s6.3,2.2,6.3,7.2v11.9h-5.2v-11.1c0-2.5-1-3.7-3.3-3.7s-3.9,1.4-3.9,4.1v10.8h-5.2v-.2ZM145.5,58.1c-3.4,0-6.2-1.6-6.2-5.6s4-6,9.7-6h2.1v-.7c0-2.2-.7-3.4-3-3.4s-3,1-3.2,2.6h-4.9c.3-4.4,3.8-6.4,8.4-6.4s7.8,1.9,7.8,6.9v12.1h-5v-2.2c-1.1,1.5-2.7,2.6-5.6,2.6h-.1ZM147,54.5c2.3,0,4-1.2,4-3.3v-1.6h-2c-3,0-4.7.6-4.7,2.6s.8,2.2,2.7,2.2h0ZM166.8,58.1c-3.6,0-6.3-2.1-6.3-7v-12h5.1v11.3c0,2.5,1,3.7,3.2,3.7s3.9-1.4,3.9-4.1v-10.9h5.1v18.6h-5.1v-2.9c-1,1.9-2.9,3.3-5.9,3.3Z" fill="#2d3c5b"/>
  <path d="M143.3,27.4c-5.3,0-9.1-4-9.1-9.5v-.3c0-5.6,3.9-9.5,9.2-9.5s9.2,3.9,9.2,9.5v.3c0,5.6-3.9,9.5-9.2,9.5h0ZM143.3,24.9c3.7,0,6.1-2.8,6.1-7v-.2c0-4.3-2.4-7.1-6.1-7.1s-6.1,2.8-6.1,7.1v.3c0,4.2,2.3,7,6.1,7h0ZM157.1,27.1V8.4h3v3.3c1.2-2.1,2.8-3.6,6.1-3.7v2.8c-3.7.2-6.1,1.4-6.1,5.9v10.2h-3v.2ZM176.3,27.3c-3.4,0-5-2-5-4.9v-11.5h-2.7v-2.5h2.7v-4.2h3v4.2h4.3v2.5h-4.3v11.2c0,1.8.8,2.7,2.3,2.7s1.6-.1,2.3-.4v2.5c-.6.2-1.3.4-2.5.4h-.1Z" fill="#e2001a"/>
</svg>